<svg xmlns="http://www.w3.org/2000/svg" width="17.999" height="17.996" viewBox="0 0 17.999 17.996">
  <g id="Group_2942" data-name="Group 2942" transform="translate(-1537.001 -40)">
    <path id="Path_9728" data-name="Path 9728" d="M25.363,26.709a6.71,6.71,0,0,1,5.69-6.631,6.708,6.708,0,1,0,0,13.263A6.71,6.71,0,0,1,25.363,26.709Z" transform="translate(1514.486 20.701)" fill="#fde0e0"/>
    <path id="Path_9729" data-name="Path 9729" d="M7.607,14.821a7.411,7.411,0,1,1,7.411-7.411A7.419,7.419,0,0,1,7.607,14.821Zm0-13.416a6.006,6.006,0,1,0,6.006,6.006A6.013,6.013,0,0,0,7.607,1.4Z" transform="translate(1536.805 40)" fill="#ff6961"/>
    <path id="Path_9730" data-name="Path 9730" d="M386.541,387.44a.7.7,0,0,1-.5-.206l-3.143-3.143a.7.7,0,0,1,.993-.993l3.143,3.143a.7.7,0,0,1-.5,1.2Z" transform="translate(1167.756 -329.444)"/>
  </g>
</svg>
